<svg xmlns="http://www.w3.org/2000/svg" viewBox="0 0 64 64" role="img" aria-labelledby="title desc">
  <title id="title">华盖</title>
  <desc id="desc">A refined canopy star icon with a smooth ceremonial cover.</desc>
  <style>
    .ring,.line{fill:none;stroke:#E8EEF7;stroke-linecap:round;stroke-linejoin:round}.ring{stroke-width:2.4}.line{stroke-width:2.6}.soft{fill:none}.gold{fill:#C9A24D}
  </style>
  <circle class="ring" cx="32" cy="32" r="23"/>
  <path class="soft" d="M16 31c3-8.2 8.4-12.4 16-12.4S45 22.8 48 31H16z"/>
  <path class="ring" d="M16 31c3-8.2 8.4-12.4 16-12.4S45 22.8 48 31H16z"/>
  <path class="line" d="M20 31c2.3 3.2 4.9 3.2 7.1 0 2.2 3.2 7.6 3.2 9.8 0 2.2 3.2 4.8 3.2 7.1 0M32 31v16M25 47h14"/>
  <path class="gold" d="M32 12l2 4.4 4.6 1.8-4.6 1.8-2 4.4-2-4.4-4.6-1.8 4.6-1.8 2-4.4z"/>
  <path class="ring" d="M32 12l2 4.4 4.6 1.8-4.6 1.8-2 4.4-2-4.4-4.6-1.8 4.6-1.8 2-4.4z"/>
</svg>
